<svg width="40" height="37" viewBox="0 0 40 37" fill="none" xmlns="http://www.w3.org/2000/svg">
<rect x="3.36401" y="1.95508" width="32.6802" height="32.6802" rx="8" fill="#343434"/>
<path d="M19.9696 1C14.9202 1 14.2871 1.02034 12.304 1.1063C10.325 1.19213 8.97349 1.49071 7.7908 1.92743C6.56818 2.37887 5.53133 2.98289 4.49772 3.96494C3.46412 4.94699 2.82838 5.93213 2.35324 7.09376C1.89359 8.21738 1.57934 9.50151 1.48901 11.3817C1.39853 13.2659 1.3772 13.8675 1.3772 18.665C1.3772 23.4625 1.39853 24.0641 1.48901 25.9483C1.57934 27.8285 1.89359 29.1126 2.35324 30.2363C2.82838 31.3979 3.46412 32.383 4.49772 33.3651C5.53133 34.3472 6.56818 34.9512 7.7908 35.4027C8.97349 35.8393 10.325 36.138 12.304 36.2237C14.2871 36.3097 14.9202 36.33 19.9696 36.33C25.019 36.33 25.6522 36.3097 27.6352 36.2237C29.6142 36.138 30.9657 35.8393 32.1483 35.4027C33.371 34.9512 34.4078 34.3472 35.4415 33.3651C36.4751 32.383 37.1108 31.3979 37.586 30.2363C38.0455 29.1126 38.3599 27.8285 38.4501 25.9483C38.5406 24.0641 38.562 23.4625 38.562 18.665C38.562 13.8675 38.5406 13.2659 38.4501 11.3817C38.3599 9.50151 38.0455 8.21738 37.586 7.09376C37.1108 5.93213 36.4751 4.94699 35.4415 3.96494C34.4078 2.98289 33.371 2.37887 32.1483 1.92743C30.9657 1.49071 29.6142 1.19213 27.6352 1.1063C25.6522 1.02034 25.019 1 19.9696 1V1ZM19.9696 4.18295C24.934 4.18295 25.522 4.2009 27.4825 4.28589C29.2953 4.36449 30.2797 4.65227 30.9349 4.89412C31.8027 5.21457 32.4221 5.59744 33.0726 6.21556C33.7233 6.83368 34.1262 7.42221 34.4635 8.24669C34.7181 8.86916 35.021 9.80451 35.1036 11.5268C35.1931 13.3895 35.212 13.9483 35.212 18.665C35.212 23.3818 35.1931 23.9405 35.1036 25.8032C35.021 27.5255 34.7181 28.4609 34.4635 29.0833C34.1262 29.9079 33.7233 30.4963 33.0726 31.1145C32.4221 31.7327 31.8027 32.1154 30.9349 32.4359C30.2797 32.6778 29.2953 32.9656 27.4825 33.0441C25.5223 33.1291 24.9343 33.1471 19.9696 33.1471C15.0049 33.1471 14.417 33.1291 12.4567 33.0441C10.6439 32.9656 9.65948 32.6778 9.00434 32.4359C8.13649 32.1154 7.51714 31.7327 6.86649 31.1145C6.21592 30.4963 5.81296 29.9079 5.47576 29.0833C5.22114 28.4609 4.91825 27.5255 4.83552 25.8032C4.74607 23.9405 4.72717 23.3818 4.72717 18.665C4.72717 13.9483 4.74607 13.3895 4.83552 11.5268C4.91825 9.80451 5.22114 8.86916 5.47576 8.24669C5.81296 7.42221 6.21592 6.83368 6.86649 6.21556C7.51714 5.59744 8.13649 5.21457 9.00434 4.89412C9.65948 4.65227 10.6439 4.36449 12.4567 4.28589C14.4172 4.2009 15.0052 4.18295 19.9696 4.18295V4.18295Z" fill="white" stroke="white"/>
<path d="M19.9684 24.5533C16.5456 24.5533 13.7709 21.917 13.7709 18.665C13.7709 15.4129 16.5456 12.7766 19.9684 12.7766C23.3911 12.7766 26.1658 15.4129 26.1658 18.665C26.1658 21.917 23.3911 24.5533 19.9684 24.5533ZM19.9684 9.59375C14.6954 9.59375 10.4209 13.655 10.4209 18.665C10.4209 23.6749 14.6954 27.7361 19.9684 27.7361C25.2413 27.7361 29.5158 23.6749 29.5158 18.665C29.5158 13.655 25.2413 9.59375 19.9684 9.59375V9.59375Z" fill="white"/>
<path d="M32.1237 9.2355C32.1237 10.4063 31.1247 11.3553 29.8925 11.3553C28.6603 11.3553 27.6614 10.4063 27.6614 9.2355C27.6614 8.06475 28.6603 7.11572 29.8925 7.11572C31.1247 7.11572 32.1237 8.06475 32.1237 9.2355Z" fill="white"/>
</svg>
