<svg width="30" height="29" viewBox="0 0 30 29" fill="none" xmlns="http://www.w3.org/2000/svg">
<path d="M14.8962 0.533203C6.68166 0.533203 0.0224609 6.86043 0.0224609 14.6651C0.0224609 20.6522 3.94283 25.7704 9.47591 27.8295C9.34576 26.7113 9.22834 24.9917 9.52756 23.771C9.79773 22.6682 11.2716 16.7465 11.2716 16.7465C11.2716 16.7465 10.8266 15.9001 10.8266 14.6484C10.8266 12.6834 12.0254 11.2163 13.5181 11.2163C14.7869 11.2163 15.4 12.1216 15.4 13.207C15.4 14.4196 14.5875 16.2323 14.1681 17.9123C13.8177 19.319 14.9106 20.466 16.3706 20.466C19.0144 20.466 21.0464 17.8176 21.0464 13.9946C21.0464 10.611 18.4874 8.24525 14.8336 8.24525C10.6014 8.24525 8.11728 11.2612 8.11728 14.3781C8.11728 15.5927 8.60968 16.8951 9.22422 17.6031C9.34565 17.743 9.36354 17.8657 9.3274 18.0084C9.2144 18.4549 8.96358 19.4147 8.91425 19.6111C8.84935 19.8698 8.69864 19.9247 8.41685 19.8001C6.55912 18.9785 5.39774 16.3981 5.39774 14.3254C5.39774 9.86745 8.80665 5.77359 15.2254 5.77359C20.3851 5.77359 24.395 9.26679 24.395 13.9354C24.395 18.8059 21.1629 22.7255 16.6767 22.7255C15.1696 22.7255 13.7526 21.9816 13.2677 21.1028C13.2677 21.1028 12.5218 23.8011 12.341 24.4623C12.0051 25.6898 11.0987 27.2285 10.4923 28.167C11.8841 28.5764 13.363 28.7972 14.8962 28.7972C23.1111 28.7972 29.7703 22.4702 29.7703 14.6651C29.7703 6.86043 23.1111 0.533203 14.8962 0.533203V0.533203Z" fill="#343434"/>
</svg>
