<svg width="38" height="38" viewBox="0 0 38 38" fill="none" xmlns="http://www.w3.org/2000/svg">
<circle cx="19" cy="19" r="19" fill="#FF5959"/>
<g clip-path="url(#clip0)">
<path d="M19 0C8.51089 0 0 8.51089 0 19C0 29.4891 8.51089 38 19 38C29.4686 38 38 29.4891 38 19C38 8.51089 29.4686 0 19 0ZM31.5499 8.75826C33.8166 11.5197 35.177 15.0435 35.218 18.8556C34.6822 18.7526 29.3242 17.6605 23.9252 18.3407C23.8017 18.0728 23.6983 17.784 23.5748 17.4956C23.245 16.7128 22.8741 15.9091 22.5032 15.1464C28.4795 12.7148 31.1995 9.21159 31.5499 8.75826ZM19 2.8025C23.1215 2.8025 26.8926 4.34833 29.757 6.88297C29.4686 7.29489 27.0161 10.5716 21.2462 12.7353C18.5877 7.85153 15.6412 3.85359 15.1878 3.23534C16.4035 2.94693 17.681 2.8025 19 2.8025ZM12.0965 4.32747C12.5294 4.90467 15.4143 8.92317 18.1138 13.704C10.5305 15.7232 3.83303 15.6822 3.11184 15.6822C4.16248 10.654 7.56274 6.47061 12.0965 4.32747ZM2.76146 19.0205V18.5261C3.46216 18.5467 11.3342 18.6496 19.4328 16.218C19.9067 17.1247 20.3395 18.0519 20.7514 18.9795C20.5455 19.0414 20.319 19.103 20.1126 19.1649C11.7462 21.8645 7.29489 29.2417 6.92402 29.86C4.34833 26.9956 2.76146 23.1834 2.76146 19.0205ZM19 35.2385C15.2494 35.2385 11.7876 33.961 9.04667 31.8178C9.33509 31.22 12.6323 24.8733 21.782 21.679C21.823 21.6585 21.8439 21.6585 21.885 21.6376C24.1725 27.5519 25.0997 32.5185 25.3471 33.9405C23.3894 34.7852 21.2462 35.2385 19 35.2385ZM28.0467 32.4565C27.8818 31.4674 27.0165 26.7277 24.8938 20.8958C29.9839 20.0921 34.4348 21.4111 34.9912 21.5965C34.2908 26.1094 31.6943 30.0044 28.0467 32.4565Z" fill="white"/>
</g>
<defs>
<clipPath id="clip0">
<rect width="38" height="38" fill="white"/>
</clipPath>
</defs>
</svg>
