<svg width="38" height="38" viewBox="0 0 38 38" fill="none" xmlns="http://www.w3.org/2000/svg">
<path fill-rule="evenodd" clip-rule="evenodd" d="M18.9982 9.04872e-07C8.50652 9.04872e-07 0 8.7218 0 19.4814C0 28.0884 5.44357 35.3895 12.9936 37.9667C13.9443 38.1449 14.2907 37.5433 14.2907 37.0267C14.2907 36.5651 14.2743 35.3393 14.265 33.714C8.98008 34.8908 7.865 31.1021 7.865 31.1021C7.00071 28.8526 5.755 28.2535 5.755 28.2535C4.0299 27.0444 5.88563 27.0683 5.88563 27.0683C7.79269 27.207 8.79579 29.0763 8.79579 29.0763C10.4906 32.0529 13.2433 31.193 14.3257 30.6955C14.4983 29.4362 14.9882 28.5776 15.5317 28.0908C11.3129 27.5993 6.87707 25.9274 6.87707 18.4625C6.87707 16.3362 7.61773 14.5973 8.83311 13.2352C8.63716 12.7425 7.98514 10.762 9.01857 8.07959C9.01857 8.07959 10.6142 7.55578 14.244 10.0768C15.7592 9.64505 17.3851 9.42858 19.0006 9.42141C20.6137 9.42858 22.2397 9.64505 23.7571 10.0768C27.3846 7.55578 28.9768 8.07959 28.9768 8.07959C30.0137 10.762 29.3617 12.7425 29.1657 13.2352C30.3834 14.5973 31.1194 16.3362 31.1194 18.4625C31.1194 25.9465 26.6766 27.5933 22.4438 28.0753C23.1261 28.6768 23.7338 29.8656 23.7338 31.6833C23.7338 34.2868 23.7105 36.3881 23.7105 37.0267C23.7105 37.5481 24.0522 38.1544 25.0168 37.9643C32.5611 35.3823 38 28.086 38 19.4814C38 8.7218 29.4923 9.04872e-07 18.9982 9.04872e-07Z" fill="#FF5959"/>
</svg>
