<svg width="358" height="617" viewBox="0 0 358 617" fill="none" xmlns="http://www.w3.org/2000/svg">
<path d="M19.7708 369.719H161.095C161.586 369.719 162.057 369.914 162.404 370.262C162.752 370.609 162.947 371.08 162.947 371.571V382.465C162.947 382.956 162.752 383.427 162.404 383.774C162.057 384.121 161.586 384.316 161.095 384.316H87.5673V410.559" stroke="#FF5959" stroke-width="5" stroke-miterlimit="10"/>
<path d="M36.4476 173.692L29.4145 225.219C27.6476 238.115 29.6389 251.248 35.1495 263.04L45.4298 284.954C52.2604 299.515 64.0522 310.889 78.4909 316.846L109.531 329.653L36.4476 173.692Z" fill="white" stroke="#FF5959" stroke-width="5" stroke-miterlimit="10"/>
<path d="M59.8721 369.77H17.7167C8.13787 369.77 1.11558 360.366 3.45153 350.655L22.978 284.567C24.786 277.037 31.2731 271.76 38.7076 271.76" stroke="#FF5959" stroke-width="5" stroke-miterlimit="10"/>
<path d="M112.21 332.561C111.81 332.558 111.418 332.44 111.083 332.221C110.747 332.003 110.481 331.693 110.316 331.327L35.8981 172.451C35.211 170.986 36.2344 169.279 37.7929 169.279C38.1957 169.28 38.5898 169.397 38.9283 169.616C39.2667 169.834 39.5353 170.146 39.7021 170.512L114.105 329.389C114.792 330.854 113.769 332.561 112.21 332.561Z" fill="white" stroke="#FF5959" stroke-width="5" stroke-miterlimit="10"/>
<path d="M65.759 368.84C68.7646 368.84 71.2011 366.403 71.2011 363.397C71.2011 360.391 68.7646 357.954 65.759 357.954C62.7534 357.954 60.3169 360.391 60.3169 363.397C60.3169 366.403 62.7534 368.84 65.759 368.84Z" stroke="#FF5959" stroke-width="5" stroke-miterlimit="10"/>
<path d="M60.3349 364.128C60.2373 360.808 62.425 358.052 65.7589 357.954L66.2869 357.936C67.7019 357.895 69.1163 358.035 70.4959 358.352L114.528 368.544" stroke="#FF5959" stroke-width="5" stroke-miterlimit="10"/>
<path d="M313 314.871L278.044 443.7C276.272 450.24 272.397 456.016 267.016 460.134C261.635 464.252 255.049 466.484 248.273 466.485H129.871" stroke="#FF5959" stroke-width="5" stroke-miterlimit="10"/>
<path d="M139.442 466.471L234.883 611.292" stroke="#FF5959" stroke-width="5" stroke-miterlimit="10" stroke-linecap="round"/>
<path d="M243.923 466.471L139.804 612.739" stroke="#FF5959" stroke-width="5" stroke-miterlimit="10" stroke-linecap="round"/>
<path d="M141.012 561.87C141.012 561.87 136.047 569.465 127.426 568.401L121.597 560.058C127.61 558.765 133.495 556.932 139.178 554.582C139.771 557.356 140.39 559.898 141.012 561.87Z" fill="#FFCFC9"/>
<path d="M263.894 429.395C260.401 437.219 248.765 457.545 221.999 458.387C188.819 459.433 127.773 456.3 127.773 456.3C127.773 456.3 141.735 511.478 142.035 553.291C142.035 553.291 131.031 558.875 114.698 561.327C114.698 561.327 56.1185 451.74 67.7512 424.947C76.408 405.015 142.205 397.264 171.947 394.762C184.306 401.93 225.431 424.394 263.894 429.395Z" fill="#CC3E3E"/>
<path d="M141.012 561.87C141.012 561.87 147.044 568.503 153.701 573.769C157.917 577.103 156.261 583.534 152.67 588.937C147.27 597.041 141.278 604.733 134.742 611.951C134.742 611.951 125.402 612.938 107.224 612.193C107.224 612.193 106.544 605.741 112.97 602.826C127.615 596.182 130.913 578.593 127.434 568.42C127.427 568.401 134.742 569.707 141.012 561.87Z" fill="#393D4B"/>
<path d="M156.568 575.653C158.318 579.367 155.715 584.952 153.031 588.937C153.031 588.937 143.059 602.844 135.465 612.294L106.862 612.537" stroke="#FF5959" stroke-width="7" stroke-miterlimit="10" stroke-linecap="round"/>
<path d="M125.575 597.965C125.575 597.965 118.976 593.646 123.767 591.006" stroke="#FF5959" stroke-width="5" stroke-miterlimit="10" stroke-linecap="round"/>
<path d="M129.191 593.986C129.191 593.986 121.145 589.668 125.937 587.028" stroke="#FF5959" stroke-width="5" stroke-miterlimit="10" stroke-linecap="round"/>
<path d="M226.787 247.278C226.787 247.278 257.089 238.927 259.234 214.127C259.599 209.928 226.787 247.278 226.787 247.278Z" fill="#FFE8E8"/>
<path d="M227.152 198.806C227.152 198.806 240.231 226.16 252.265 236.37C252.265 236.37 233.053 249.148 216.926 249.141C216.926 249.141 206.367 230.543 201.992 223.429L227.152 198.806Z" fill="#FFCFC9"/>
<path d="M211.881 240.312C208.544 234.5 204.36 227.292 201.992 223.429L221.135 204.705L222.447 207.32C223.843 219.856 220.347 233.534 211.881 240.312Z" fill="#FFC0B7"/>
<path d="M222.954 204.275C222.954 204.275 222.896 214.763 218.908 220.568C213.889 227.878 201.113 235.759 191.39 234.312C181.666 232.865 173.187 183.609 180.48 180.694C187.774 177.779 208.15 175.102 214.225 184.09C220.3 193.077 222.954 204.275 222.954 204.275Z" fill="#FFCFC9"/>
<path d="M233.159 210.355C233.159 210.355 228.924 211.034 222.77 208.21C222.962 205.91 223.048 201.186 220.669 199.826C218.073 198.343 216.59 202.528 216.131 204.112C215.576 203.683 215.016 203.221 214.449 202.727C204.325 193.927 206.961 185.312 206.961 185.312C206.961 185.312 191.896 194.173 177.544 193.587C165.633 193.103 159.801 176.429 169.842 171.46C169.842 171.46 169.119 176.028 177.884 173.84C186.65 171.652 184.946 162.751 197.23 161.185C212.367 159.272 215.494 169.301 215.494 169.301C215.494 169.301 222.745 165.485 230.208 172.426C238.16 179.822 227.887 200.466 233.159 210.355Z" fill="#FF5959"/>
<path d="M208.508 183.706C208.508 183.706 194.427 194.94 179.124 196.933C164.729 198.806 158.423 180.213 168.204 173.471" stroke="#FF5959" stroke-width="4" stroke-miterlimit="10"/>
<path d="M214.192 170.05C214.192 170.05 219.114 163.048 228.432 167.156" stroke="#FF5959" stroke-width="4" stroke-miterlimit="10"/>
<path d="M267.076 429.772C278.358 418.719 292.728 349.013 288.975 304.325C288.74 299.237 287.995 294.186 286.751 289.247C286.111 286.339 285.254 283.483 284.187 280.704C280.933 272.385 273.491 263.705 263.142 257.777C252.594 250.222 238.832 244.996 220.593 248.048C193.444 252.591 187.141 279.699 185.68 292.039L185.658 292.017L178.293 333.436L124.544 335.465V353.05C124.544 353.05 168.649 379.958 199.891 372.161L200.166 372.088C185.34 386.591 168.229 392.559 168.229 392.559C168.229 392.559 220.289 424.864 267.076 429.772Z" fill="#EFBFBF"/>
<path d="M226.288 315.508C226.288 315.508 215.997 367.354 196.864 373.969" stroke="white" stroke-width="5" stroke-miterlimit="10" stroke-linecap="round"/>
<path d="M226.787 247.278C235.173 246.193 257.393 232.062 259.215 213.461C259.215 213.461 292.624 247.278 280.387 274.299C280.387 274.299 273.575 261.64 258.843 253.947C241.211 244.75 226.787 247.278 226.787 247.278Z" fill="#EFBFBF"/>
<path d="M283.341 275.763C283.341 275.763 273.216 262.302 258.843 253.947C238.72 242.247 213.964 248.377 213.964 248.377" stroke="white" stroke-width="5" stroke-miterlimit="10" stroke-linecap="round"/>
<path d="M124.718 346.8C124.718 346.8 119.377 355.245 113.693 354.033C108.008 352.822 102.718 351.99 99.8362 353.473C96.2744 355.306 92.738 359.354 90.4129 359.278C87.5981 359.204 84.8238 358.59 82.2407 357.469C83.7038 354.487 85.3161 351.58 87.0717 348.76C85.101 350.008 82.4866 352.569 81.0402 353.538C78.7259 355.093 77.106 352.88 77.106 352.88C77.106 352.88 81.1053 347.198 82.8554 345.718C84.5369 344.297 90.6045 339.888 93.2514 339.498C96.4299 338.742 112.113 336.445 124.754 335.581L124.718 346.8Z" fill="#FFCFC9"/>
<path d="M85.1914 357.549C85.1914 357.549 92.2824 347.161 94.2531 346.431C97.7245 345.147 102.252 343.451 102.252 343.451" stroke="#F7B3AF" stroke-width="4" stroke-miterlimit="10" stroke-linecap="round"/>
<path d="M88.6448 358.489C88.6448 358.489 95.0523 349.809 97.0195 349.086C100.491 347.802 105.022 346.102 105.022 346.102" stroke="#F7B3AF" stroke-width="4" stroke-miterlimit="10" stroke-linecap="round"/>
<path d="M84.9631 90.0581L97.3665 80.1389C87.7308 79.076 83.7717 84.3304 82.1514 88.4894C74.6236 85.3639 66.4287 89.46 66.4287 89.46L91.2457 98.4684C89.9937 95.1248 87.8144 92.2073 84.9631 90.0581Z" fill="#3F3D56"/>
<path d="M194.963 10.0581L207.366 0.138914C197.731 -0.924038 193.772 4.33043 192.151 8.48939C184.624 5.36394 176.429 9.46 176.429 9.46L201.246 18.4684C199.994 15.1248 197.814 12.2073 194.963 10.0581Z" fill="#3F3D56"/>
<path d="M344.963 70.0581L357.366 60.1389C347.731 59.076 343.772 64.3304 342.151 68.4894C334.624 65.3639 326.429 69.46 326.429 69.46L351.246 78.4684C349.994 75.1248 347.814 72.2073 344.963 70.0581Z" fill="#3F3D56"/>
</svg>
