<svg width="42" height="42" viewBox="0 0 42 42" fill="none" xmlns="http://www.w3.org/2000/svg">
<rect x="2" y="2.08105" width="37" height="37" rx="8" fill="#FF5959"/>
<path d="M21 1C15.5683 1 14.8872 1.02302 12.754 1.12036C10.6253 1.21753 9.17139 1.55557 7.89916 2.05001C6.58398 2.56113 5.46863 3.24499 4.35677 4.35685C3.24491 5.46871 2.56105 6.58406 2.04993 7.89924C1.55549 9.17139 1.21745 10.6253 1.12028 12.754C1.02294 14.8872 1 15.5683 1 21C1 26.4317 1.02294 27.1128 1.12028 29.246C1.21745 31.3747 1.55549 32.8286 2.04993 34.1008C2.56105 35.4159 3.24491 36.5313 4.35677 37.6432C5.46863 38.7551 6.58398 39.4389 7.89916 39.9501C9.17139 40.4444 10.6253 40.7826 12.754 40.8796C14.8872 40.977 15.5683 41 21 41C26.4317 41 27.1128 40.977 29.246 40.8796C31.3747 40.7826 32.8286 40.4444 34.1008 39.9501C35.4159 39.4389 36.5313 38.7551 37.6432 37.6432C38.7551 36.5313 39.439 35.4159 39.9501 34.1008C40.4444 32.8286 40.7826 31.3747 40.8796 29.246C40.977 27.1128 41 26.4317 41 21C41 15.5683 40.977 14.8872 40.8796 12.754C40.7826 10.6253 40.4444 9.17139 39.9501 7.89924C39.439 6.58406 38.7551 5.46871 37.6432 4.35685C36.5313 3.24499 35.4159 2.56113 34.1008 2.05001C32.8286 1.55557 31.3747 1.21753 29.246 1.12036C27.1128 1.02302 26.4317 1 21 1ZM21 4.60368C26.3402 4.60368 26.9728 4.624 29.0817 4.72022C31.0317 4.80922 32.0907 5.13503 32.7954 5.40885C33.729 5.77166 34.3952 6.20513 35.095 6.90496C35.7949 7.60478 36.2283 8.2711 36.5912 9.20457C36.865 9.90932 37.1909 10.9683 37.2798 12.9183C37.376 15.0272 37.3964 15.6598 37.3964 21C37.3964 26.3402 37.376 26.9728 37.2798 29.0817C37.1909 31.0317 36.865 32.0907 36.5912 32.7954C36.2283 33.729 35.7949 34.3952 35.095 35.095C34.3952 35.7949 33.729 36.2283 32.7954 36.5911C32.0907 36.865 31.0317 37.1909 29.0817 37.2798C26.9731 37.376 26.3406 37.3964 21 37.3964C15.6594 37.3964 15.027 37.376 12.9183 37.2798C10.9683 37.1909 9.90932 36.865 9.20457 36.5911C8.27102 36.2283 7.60478 35.7949 6.90488 35.095C6.20505 34.3952 5.77159 33.729 5.40885 32.7954C5.13496 32.0907 4.80914 31.0317 4.72014 29.0817C4.62392 26.9728 4.6036 26.3402 4.6036 21C4.6036 15.6598 4.62392 15.0272 4.72014 12.9183C4.80914 10.9683 5.13496 9.90932 5.40885 9.20457C5.77159 8.2711 6.20505 7.60478 6.90488 6.90496C7.60478 6.20513 8.27102 5.77166 9.20457 5.40885C9.90932 5.13503 10.9683 4.80922 12.9183 4.72022C15.0272 4.624 15.6598 4.60368 21 4.60368Z" fill="white" stroke="white"/>
<path d="M21 27.6667C17.3181 27.6667 14.3333 24.6819 14.3333 21C14.3333 17.3181 17.3181 14.3333 21 14.3333C24.6819 14.3333 27.6667 17.3181 27.6667 21C27.6667 24.6819 24.6819 27.6667 21 27.6667ZM21 10.7297C15.3279 10.7297 10.7297 15.3279 10.7297 21C10.7297 26.6722 15.3279 31.2703 21 31.2703C26.6721 31.2703 31.2703 26.6722 31.2703 21C31.2703 15.3279 26.6721 10.7297 21 10.7297Z" fill="white"/>
<path d="M34.0754 10.3239C34.0754 11.6494 33.0009 12.7239 31.6754 12.7239C30.3499 12.7239 29.2754 11.6494 29.2754 10.3239C29.2754 8.99845 30.3499 7.92398 31.6754 7.92398C33.0009 7.92398 34.0754 8.99845 34.0754 10.3239Z" fill="white"/>
</svg>
