<svg width="152" height="154" viewBox="0 0 152 154" fill="none" xmlns="http://www.w3.org/2000/svg">
<line y1="-0.5" x2="117.41" y2="-0.5" transform="matrix(0.703888 -0.710311 0.703888 0.710311 58.8926 138)" stroke="#212121"/>
<path fill-rule="evenodd" clip-rule="evenodd" d="M97.1308 98.3592L102.224 113.75H101.793L102.508 115.97H102.944L104.864 121.73C105.104 122.45 105.224 123.03 105.224 123.47C105.224 123.99 105.064 124.45 104.744 124.85C104.464 125.21 104.084 125.39 103.604 125.39H99.2838V127.31H120.344V125.39H117.944C116.264 125.39 115.084 124.37 114.404 122.33L104.137 91.289L97.1308 98.3592Z" fill="#212121"/>
<line y1="-0.5" x2="93.9283" y2="-0.5" transform="matrix(0.703888 -0.710311 0.703888 0.710311 61.2297 127.385)" stroke="#212121"/>
<path d="M50.7995 116.045L50.0104 121.629L53.2011 118.669L54.5247 120.116L47.3636 126.76L46.0399 125.313L49.2512 122.334L43.6384 122.689L42.0406 120.943L48.3133 120.625L49.1261 114.216L50.7995 116.045Z" fill="#212121"/>
<path d="M36.1453 110.421L41.6403 107.936C42.2424 107.664 42.6315 107.298 42.8076 106.838C42.9753 106.382 42.9269 105.87 42.6624 105.301C42.3939 104.724 42.0297 104.35 41.5699 104.178C41.1015 104.01 40.5663 104.062 39.9643 104.334L34.4693 106.82L33.6343 105.025L39.1165 102.545C39.8712 102.204 40.5884 102.08 41.2682 102.173C41.9355 102.261 42.5289 102.522 43.0484 102.954C43.564 103.379 43.9777 103.926 44.2896 104.596C44.5976 105.258 44.7465 105.92 44.7363 106.582C44.7221 107.235 44.5295 107.836 44.1583 108.384C43.7786 108.936 43.2114 109.382 42.4567 109.724L36.9745 112.203L36.1453 110.421Z" fill="#212121"/>
<path d="M40.7535 90.7346C40.8464 91.4124 40.8149 92.0382 40.659 92.612C40.5019 93.1765 40.2278 93.641 39.837 94.0056C39.4461 94.3702 38.9557 94.5904 38.3659 94.6662L38.0797 92.5772C38.4731 92.5046 38.768 92.33 38.9646 92.0533C39.1599 91.7673 39.227 91.4015 39.166 90.9558C39.1037 90.5009 38.9485 90.1554 38.7005 89.9194C38.4432 89.6844 38.139 89.5866 37.7881 89.6262C37.5017 89.6584 37.2783 89.7732 37.1177 89.9704C36.9572 90.1676 36.8445 90.4065 36.7798 90.6872C36.7046 90.9597 36.6341 91.3353 36.5684 91.8141C36.4701 92.4663 36.3606 93.0018 36.2398 93.4208C36.1085 93.8316 35.8824 94.2012 35.5617 94.5296C35.2303 94.8497 34.7599 95.0441 34.1503 95.1128C33.5776 95.1773 33.0592 95.0896 32.5949 94.8496C32.1306 94.6096 31.752 94.2422 31.4591 93.7472C31.157 93.2533 30.9601 92.6721 30.8685 92.0036C30.7312 91.0009 30.8647 90.1609 31.269 89.4837C31.6628 88.7982 32.2894 88.3741 33.1487 88.2113L33.4425 90.3561C33.1125 90.4121 32.8597 90.5867 32.6842 90.8799C32.4981 91.1648 32.435 91.5255 32.4948 91.9618C32.5469 92.3425 32.6858 92.638 32.9116 92.8482C33.1361 93.0492 33.4331 93.1289 33.8025 93.0873C34.0611 93.0582 34.2667 92.9501 34.4193 92.7633C34.5614 92.5681 34.6707 92.339 34.7472 92.0758C34.8132 91.8044 34.8837 91.4288 34.9586 90.9489C35.0569 90.2968 35.171 89.7607 35.3011 89.3406C35.4311 88.9206 35.6611 88.5459 35.9912 88.2164C36.3212 87.887 36.7864 87.6885 37.3868 87.6208C37.904 87.5626 38.4027 87.6431 38.883 87.8624C39.3632 88.0817 39.7728 88.4363 40.1119 88.926C40.4417 89.4168 40.6556 90.0197 40.7535 90.7346Z" fill="#212121"/>
<path d="M32.6042 70.3074L42.1358 72.2817L41.7917 74.2191L37.736 73.379L37.0011 77.5168L41.0568 78.3569L40.7127 80.2943L31.1811 78.3201L31.5252 76.3826L35.4444 77.1944L36.1793 73.0566L32.2601 72.2448L32.6042 70.3074Z" fill="#212121"/>
<path d="M51.9104 45.6852C51.4627 45.5564 51.0259 45.5567 50.6 45.6862C50.1741 45.8158 49.7788 46.0677 49.4141 46.4421C49.0102 46.8567 48.7447 47.3164 48.6175 47.8215C48.4902 48.3265 48.5109 48.8403 48.6794 49.3627C48.8479 49.8852 49.1573 50.37 49.6076 50.8172C50.0711 51.2775 50.563 51.5884 51.0833 51.7498C51.61 51.9046 52.1257 51.9102 52.6303 51.7668C53.1349 51.6233 53.5988 51.3343 54.0222 50.8997C54.5433 50.3649 54.8309 49.7889 54.8849 49.1717C54.9324 48.548 54.7565 47.9327 54.3574 47.326L52.0126 49.7328L50.9497 48.6773L54.6429 44.8866L55.8548 46.09C56.247 46.6637 56.4986 47.3081 56.6096 48.0234C56.7205 48.7386 56.6641 49.4652 56.4402 50.2032C56.2163 50.9278 55.8112 51.591 55.225 52.1927C54.5671 52.868 53.8221 53.3318 52.99 53.5841C52.1578 53.8231 51.3204 53.8334 50.4779 53.615C49.6418 53.3898 48.8828 52.9386 48.2007 52.2613C47.5186 51.584 47.0591 50.8252 46.8223 49.985C46.5854 49.1315 46.5818 48.2861 46.8114 47.4486C47.0409 46.5979 47.4813 45.8382 48.1326 45.1697C48.9012 44.3808 49.7609 43.8862 50.7117 43.686C51.6558 43.4791 52.5798 43.6074 53.4834 44.0707L51.9104 45.6852Z" fill="#212121"/>
<path d="M67.7713 41.9715L64.3192 43.7479L64.6154 45.6945L62.79 46.6338L61.3481 36.3443L63.3721 35.3028L71.0477 42.3845L69.2099 43.3302L67.7713 41.9715ZM66.569 40.8227L63.4104 37.8397L64.0606 42.1134L66.569 40.8227Z" fill="#212121"/>
<path d="M81.5117 35.6595C82.0717 35.677 82.5658 35.8801 82.9937 36.2689C83.4217 36.6576 83.6866 37.1379 83.7885 37.7099C83.8805 38.2265 83.8333 38.703 83.6467 39.1396C83.4677 39.5654 83.1591 39.9261 82.7209 40.2215C82.2826 40.5168 81.7374 40.7151 81.0852 40.8161L76.9377 41.4585L75.217 31.7999L79.1854 31.1852C79.8376 31.0842 80.4169 31.1035 80.9231 31.2431C81.4386 31.3813 81.8495 31.621 82.1557 31.9622C82.4711 32.302 82.6715 32.7118 82.757 33.1915C82.8572 33.7542 82.7895 34.2482 82.5537 34.6734C82.3271 35.0971 81.9798 35.4258 81.5117 35.6595ZM77.8561 35.4863L79.6198 35.2131C80.0791 35.142 80.4147 34.9857 80.6265 34.7444C80.8368 34.4938 80.9074 34.1747 80.8383 33.7873C80.7693 33.3998 80.5919 33.1192 80.3061 32.9455C80.0202 32.7717 79.6477 32.7204 79.1884 32.7916L77.4247 33.0648L77.8561 35.4863ZM80.5286 39.2813C80.9971 39.2087 81.3402 39.0418 81.558 38.7806C81.7849 38.5179 81.8623 38.1836 81.7899 37.7777C81.716 37.3626 81.5207 37.0611 81.204 36.8731C80.8857 36.676 80.4923 36.6137 80.0238 36.6862L78.1223 36.9808L78.5857 39.5822L80.5286 39.2813Z" fill="#212121"/>
<path d="M97.6045 40.232L93.7798 39.6013L92.8954 41.3495L90.873 41.016L95.648 31.849L97.8905 32.2188L100.022 42.5247L97.9859 42.1889L97.6045 40.232ZM97.2935 38.5857L96.4561 34.2893L94.5144 38.1274L97.2935 38.5857Z" fill="#212121"/>
<path d="M112.809 49.1204L111.077 48.2119L110.142 40.1307L107.157 46.1549L105.426 45.2464L109.781 36.4554L111.513 37.3639L112.442 45.4577L115.433 39.4209L117.164 40.3294L112.809 49.1204Z" fill="#212121"/>
<path d="M126.527 48.5543L119.763 55.6088L118.362 54.2385L125.126 47.184L126.527 48.5543Z" fill="#212121"/>
<rect x="101" y="113.334" width="0.995288" height="3.18088" transform="rotate(-19.5 101 113.334)" fill="white"/>
<ellipse cx="39.6081" cy="60.7477" rx="1.75314" ry="1.76923" fill="#212121"/>
</svg>
