<svg width="32" height="32" viewBox="0 0 32 32" fill="none" xmlns="http://www.w3.org/2000/svg">
<g clip-path="url(#clip0)">
<path fill-rule="evenodd" clip-rule="evenodd" d="M15.9787 17.3333C13.3747 17.3333 -0.0412598 6.52132 -0.0412598 6.52132V5.33332C-0.0412598 3.86132 1.15341 2.66666 2.62807 2.66666H29.3294C30.8054 2.66666 32.0001 3.86132 32.0001 5.33332L31.9787 6.66666C31.9787 6.66666 18.7081 17.3333 15.9787 17.3333ZM15.9787 21C18.8334 21 31.9787 10.6667 31.9787 10.6667L32.0001 26.6667C32.0001 28.1387 30.8054 29.3333 29.3294 29.3333H2.62807C1.15474 29.3333 -0.0412598 28.1387 -0.0412598 26.6667L-0.0199264 10.6667C-0.0212598 10.6667 13.3747 21 15.9787 21Z" fill="#FF5959"/>
</g>
<defs>
<clipPath id="clip0">
<rect width="32" height="32" fill="white"/>
</clipPath>
</defs>
</svg>
