<svg width="32" height="26" viewBox="0 0 32 26" fill="none" xmlns="http://www.w3.org/2000/svg">
<path d="M3.79456 5.18256C3.83438 4.78975 3.68462 4.40137 3.39125 4.13706L0.403313 0.537688V0H9.68062L16.8516 15.7267L23.1561 0L32 6.24657e-05V0.537688L29.4454 2.987C29.2251 3.15481 29.1159 3.43088 29.1616 3.704V21.7007C29.1159 21.9738 29.2251 22.2498 29.4454 22.4176L31.9402 24.867V25.4046H19.3913V24.867L21.9757 22.3578C22.2297 22.104 22.2297 22.0292 22.2297 21.6411V7.09425L15.0439 25.3448H14.0729L5.70675 7.09425V19.3261C5.63713 19.8403 5.80788 20.3581 6.16988 20.7299L9.53137 24.8071V25.3448H0V24.8071L3.3615 20.7299C3.72081 20.3574 3.88156 19.8361 3.79456 19.3261V5.18256Z" fill="#FF5959"/>
</svg>
