<svg width="32" height="32" viewBox="0 0 32 32" fill="none" xmlns="http://www.w3.org/2000/svg">
<path d="M15.9998 0C7.16336 0 0 7.16358 0 15.9999C0 22.7784 4.21718 28.5731 10.1692 30.9044C10.0292 29.6384 9.90286 27.6916 10.2247 26.3095C10.5154 25.0609 12.1009 18.3565 12.1009 18.3565C12.1009 18.3565 11.6222 17.3981 11.6222 15.981C11.6222 13.7562 12.9117 12.0953 14.5173 12.0953C15.8823 12.0953 16.5418 13.1202 16.5418 14.3491C16.5418 15.722 15.6678 17.7743 15.2166 19.6763C14.8397 21.2689 16.0153 22.5676 17.5859 22.5676C20.4298 22.5676 22.6157 19.5691 22.6157 15.2408C22.6157 11.41 19.8629 8.73145 15.9325 8.73145C11.3799 8.73145 8.70767 12.1461 8.70767 15.6749C8.70767 17.0502 9.23736 18.5247 9.89842 19.3262C10.029 19.4847 10.0483 19.6236 10.0094 19.7852C9.88786 20.2906 9.61804 21.3773 9.56498 21.5997C9.49517 21.8925 9.33305 21.9547 9.02992 21.8137C7.03155 20.8834 5.78224 17.962 5.78224 15.6153C5.78224 10.5681 9.44923 5.93307 16.354 5.93307C21.9043 5.93307 26.2178 9.88802 26.2178 15.1737C26.2178 20.688 22.741 25.1257 17.9152 25.1257C16.2939 25.1257 14.7697 24.2835 14.248 23.2886C14.248 23.2886 13.4457 26.3435 13.2512 27.0921C12.8898 28.4819 11.9148 30.2239 11.2625 31.2865C12.7597 31.7501 14.3506 32 15.9998 32C24.8366 32 32 24.8367 32 15.9999C32 7.16358 24.8366 0 15.9998 0Z" fill="#FF5959"/>
</svg>
