<svg width="32" height="27" viewBox="0 0 32 27" fill="none" xmlns="http://www.w3.org/2000/svg">
<path d="M10.0634 26.0016C22.1389 26.0016 28.7437 15.9972 28.7437 7.32131C28.7437 7.03719 28.7437 6.75431 28.7245 6.47269C30.0094 5.54325 31.1186 4.39256 32 3.07431C30.8018 3.60525 29.5306 3.95338 28.2291 4.10725C29.5994 3.287 30.6256 1.99588 31.1155 0.475875C29.8268 1.24056 28.4167 1.77956 26.9466 2.0695C25.7052 0.749437 23.9714 0 22.1595 0C18.5544 0 15.5879 2.9665 15.5879 6.5715C15.5879 7.07162 15.6451 7.57019 15.7581 8.05731C10.4819 7.79288 5.55931 5.29725 2.22719 1.19781C0.494437 4.18069 1.391 8.04631 4.25981 9.96194C3.21512 9.931 2.19287 9.64913 1.28 9.14019V9.22338C1.28087 12.3368 3.49544 15.0428 6.54719 15.6593C5.58069 15.9228 4.56638 15.9613 3.58275 15.7719C4.44069 18.4397 6.91469 20.2786 9.7165 20.3312C7.39213 22.1579 4.51919 23.1502 1.56288 23.1472C1.0405 23.1462 0.518625 23.1146 0 23.0525C3.00213 24.9791 6.49625 26.0012 10.0634 25.9965" fill="#FF5959"/>
</svg>
