<svg width="25" height="25" viewBox="0 0 25 25" fill="none" xmlns="http://www.w3.org/2000/svg">
<path d="M24.9996 12.5C24.9996 5.5966 19.4033 0.000244141 12.4998 0.000244141C5.59635 0.000244141 0 5.5966 0 12.5C0 19.4035 5.59635 24.9999 12.4998 24.9999C19.4033 24.9999 24.9996 19.4035 24.9996 12.5Z" fill="white"/>
<path fill-rule="evenodd" clip-rule="evenodd" d="M16.3656 24.3904C15.1481 24.7864 13.8488 25.0004 12.4998 25.0004C11.1498 25.0004 9.8497 24.7861 8.63149 24.3896C9.19424 24.4571 9.40215 24.0907 9.40215 23.7743C9.40215 23.6366 9.39981 23.3937 9.39664 23.0687C9.39304 22.6928 9.3883 22.2069 9.38497 21.6471C5.90768 22.403 5.1741 19.9702 5.1741 19.9702C4.60614 18.5255 3.78662 18.1409 3.78662 18.1409C2.65148 17.3645 3.87255 17.3802 3.87255 17.3802C5.12644 17.4686 5.78659 18.6694 5.78659 18.6694C6.90219 20.5809 8.71232 20.029 9.42481 19.7084C9.53809 18.9001 9.86152 18.3488 10.2185 18.0361C7.44281 17.7203 4.52489 16.6477 4.52489 11.8546C4.52489 10.4888 5.0116 9.37255 5.81159 8.49767C5.68268 8.18116 5.25378 6.90993 5.93346 5.18766C5.93346 5.18766 6.98344 4.85146 9.37091 6.46978C10.3685 6.19218 11.4373 6.05396 12.5005 6.04833C13.5622 6.05375 14.6318 6.19218 15.6302 6.46978C18.0161 4.85146 19.0637 5.18766 19.0637 5.18766C19.7457 6.90993 19.3168 8.18116 19.1879 8.49767C19.9895 9.37255 20.4731 10.4888 20.4731 11.8546C20.4731 16.6594 17.5505 17.7173 14.7661 18.0268C15.2146 18.413 15.6146 19.1759 15.6146 20.3432C15.6146 21.4614 15.6076 22.4348 15.6029 23.0799C15.6007 23.3995 15.5989 23.6385 15.5989 23.7745C15.5989 24.0923 15.8018 24.4595 16.3656 24.3904Z" fill="#1F1F1F"/>
</svg>
