<svg width="26" height="25" viewBox="0 0 26 25" fill="none" xmlns="http://www.w3.org/2000/svg">
<path fill-rule="evenodd" clip-rule="evenodd" d="M13.2211 0C9.82635 0 9.40082 0.0145818 8.0675 0.0749981C6.73677 0.135935 5.82793 0.347391 5.03314 0.656244C4.21127 0.975513 3.51388 1.40312 2.81961 2.09791C2.1243 2.79269 1.69671 3.49009 1.37744 4.31196C1.06859 5.10727 0.856614 6.01559 0.796197 7.34631C0.735781 8.67964 0.721191 9.10516 0.721191 12.4999C0.721191 15.8947 0.735781 16.3202 0.796197 17.6536C0.857135 18.9843 1.06859 19.8931 1.37744 20.6879C1.69671 21.5098 2.12432 22.2072 2.8191 22.9014C3.51389 23.5967 4.21127 24.0244 5.03314 24.3441C5.82845 24.6525 6.73677 24.8639 8.0675 24.9249C9.40082 24.9853 9.82635 24.9999 13.2211 24.9999C16.6159 24.9999 17.0414 24.9853 18.3748 24.9249C19.7055 24.8639 20.6143 24.6525 21.4091 24.3436C22.231 24.0244 22.9284 23.5968 23.6226 22.902C24.3179 22.2072 24.7456 21.5098 25.0653 20.6879C25.3737 19.8926 25.5851 18.9843 25.6461 17.6536C25.7065 16.3202 25.7211 15.8947 25.7211 12.4999C25.7211 9.10516 25.7065 8.67964 25.6461 7.34631C25.5851 6.01559 25.3737 5.10675 25.0648 4.31196C24.7455 3.49009 24.3179 2.7927 23.6231 2.09843C22.9284 1.40312 22.231 0.975513 21.4091 0.656244C20.6138 0.347391 19.7055 0.135414 18.3748 0.0749981C17.0414 0.0145818 16.6159 0 13.2211 0ZM13.2211 2.25207C16.5586 2.25207 16.9539 2.26509 18.2721 2.32499C19.4909 2.38072 20.1524 2.58436 20.5935 2.75571C21.1768 2.98228 21.5935 3.25311 22.031 3.6906C22.4679 4.1281 22.7388 4.54476 22.9653 5.12809C23.1372 5.5682 23.3403 6.23018 23.3961 7.44892C23.456 8.76662 23.469 9.16245 23.469 12.4999C23.469 15.8374 23.456 16.2327 23.3961 17.5509C23.3403 18.7697 23.1367 19.4311 22.9653 19.8723C22.7388 20.4556 22.468 20.8723 22.0305 21.3098C21.593 21.7468 21.1763 22.0176 20.593 22.2442C20.1529 22.416 19.4909 22.6191 18.2721 22.6749C16.9544 22.7348 16.5586 22.7478 13.2211 22.7478C9.88312 22.7478 9.48781 22.7348 8.17011 22.6749C6.95137 22.6191 6.28991 22.4155 5.84877 22.2442C5.26544 22.0176 4.84877 21.7468 4.41127 21.3093C3.97429 20.8718 3.70346 20.4551 3.4769 19.8718C3.30502 19.4317 3.1019 18.7697 3.04617 17.5509C2.98628 16.2332 2.97327 15.8374 2.97327 12.4999C2.97327 9.16245 2.98628 8.76714 3.04617 7.44892C3.1019 6.23018 3.30554 5.56872 3.4769 5.12758C3.70346 4.54425 3.9743 4.12759 4.4118 3.69009C4.84929 3.25311 5.26596 2.98228 5.84929 2.75571C6.2894 2.58384 6.95137 2.38072 8.17011 2.32499C9.48781 2.26509 9.88364 2.25207 13.2211 2.25207ZM13.2211 6.08121C9.67583 6.08121 6.80241 8.95464 6.80241 12.4999C6.80241 16.0452 9.67583 18.9187 13.2211 18.9187C16.7664 18.9187 19.6398 16.0452 19.6398 12.4999C19.6398 8.95464 16.7664 6.08121 13.2211 6.08121ZM13.2211 16.6666C12.1161 16.6666 11.0563 16.2276 10.2749 15.4462C9.49346 14.6648 9.05448 13.605 9.05448 12.4999C9.05448 11.3949 9.49346 10.3351 10.2749 9.55367C11.0563 8.77227 12.1161 8.33329 13.2211 8.33329C14.3262 8.33329 15.386 8.77227 16.1674 9.55367C16.9488 10.3351 17.3878 11.3949 17.3878 12.4999C17.3878 13.605 16.9488 14.6648 16.1674 15.4462C15.386 16.2276 14.3262 16.6666 13.2211 16.6666ZM21.3935 5.82757C21.3935 6.22539 21.2354 6.60692 20.9541 6.88823C20.6728 7.16953 20.2913 7.32757 19.8935 7.32757C19.4956 7.32757 19.1141 7.16953 18.8328 6.88823C18.5515 6.60692 18.3935 6.22539 18.3935 5.82757C18.3935 5.42975 18.5515 5.04822 18.8328 4.76692C19.1141 4.48561 19.4956 4.32758 19.8935 4.32758C20.2913 4.32758 20.6728 4.48561 20.9541 4.76692C21.2354 5.04822 21.3935 5.42975 21.3935 5.82757Z" fill="white"/>
</svg>
