<svg width="25" height="25" viewBox="0 0 25 25" fill="none" xmlns="http://www.w3.org/2000/svg">
<path d="M23.1517 0.00351938C19.3067 -0.00727 5.12499 0.0108877 1.84713 0.00351938C0.827136 0.00351938 -0.000488281 0.80588 -0.000488281 1.79403V23.2099C-0.000488281 24.1983 0.827136 24.9999 1.84713 24.9999H23.1517C24.1722 24.9999 24.9993 24.1983 24.9993 23.2096V1.79403C24.9993 0.80588 24.1722 0.00351938 23.1517 0.00351938ZM7.59707 20.9223H3.85579V9.66869H7.59681V16.0423C7.59839 17.2073 7.59628 19.7404 7.59707 20.9223ZM5.72709 8.13265C4.46684 8.14608 3.63264 7.27687 3.63527 6.18846C3.63158 3.61296 7.8326 3.58401 7.84339 6.18873C7.84339 7.26845 7.03129 8.13265 5.72709 8.13265ZM21.0864 20.9223H17.3459V14.9026C17.3459 13.3897 16.8041 12.3579 15.4509 12.3579C14.0618 12.4063 13.3715 13.4839 13.4083 14.6386V20.9225L9.66758 20.9228C9.66758 20.9228 9.71679 10.725 9.66784 9.66948H13.4086L13.3836 11.301C13.876 10.5329 14.7623 9.40528 16.7801 9.40528C19.2412 9.40528 21.0867 11.0137 21.0867 14.4702V20.9223H21.0864Z" fill="white"/>
</svg>
