<svg width="26" height="25" viewBox="0 0 26 25" fill="none" xmlns="http://www.w3.org/2000/svg">
<path fill-rule="evenodd" clip-rule="evenodd" d="M13.2216 0C20.1254 0 25.7215 5.59616 25.7215 12.4999C25.7215 19.4037 20.1254 24.9999 13.2216 24.9999C6.31784 24.9999 0.72168 19.4037 0.72168 12.4999C0.72168 5.59616 6.31784 0 13.2216 0Z" fill="white"/>
<path fill-rule="evenodd" clip-rule="evenodd" d="M9.54978 7.78223C12.1552 7.78223 14.2675 9.89452 14.2675 12.5C14.2675 15.1054 12.1552 17.2177 9.54978 17.2177C6.94481 17.2177 4.83252 15.1054 4.83252 12.5C4.83252 9.89452 6.94481 7.78223 9.54978 7.78223ZM20.7792 8.52734C21.2387 8.52734 21.6108 10.3061 21.6108 12.5C21.6108 14.6938 21.2387 16.4726 20.7792 16.4726C20.3202 16.4726 19.9477 14.6938 19.9477 12.5C19.9477 10.3061 20.3202 8.52734 20.7792 8.52734ZM17.0986 8.15478C18.4169 8.15478 19.4853 10.1001 19.4853 12.5C19.4853 14.8999 18.4169 16.8452 17.0986 16.8452C15.7802 16.8452 14.7114 14.8999 14.7114 12.5C14.7114 10.1001 15.7802 8.15478 17.0986 8.15478Z" fill="#1F1F1F"/>
</svg>
