<svg width="26" height="25" viewBox="0 0 26 25" fill="none" xmlns="http://www.w3.org/2000/svg">
<path fill-rule="evenodd" clip-rule="evenodd" d="M13.2219 0C6.31933 0 0.721436 5.59633 0.721436 12.5005C0.721436 17.6176 3.79954 22.016 8.20524 23.9488C8.16983 23.077 8.199 22.0275 8.42139 21.078C8.66202 20.0634 10.0292 14.2676 10.0292 14.2676C10.0292 14.2676 9.63076 13.4692 9.63076 12.289C9.63076 10.4369 10.7058 9.0536 12.0422 9.0536C13.1776 9.0536 13.7276 9.90776 13.7276 10.9307C13.7276 12.0729 12.9984 13.7827 12.6235 15.3656C12.311 16.6931 13.288 17.7733 14.5964 17.7733C16.9646 17.7733 18.5599 14.7317 18.5599 11.1275C18.5599 8.38901 16.7146 6.33852 13.3589 6.33852C9.56775 6.33852 7.20526 9.16506 7.20526 12.3229C7.20526 13.4135 7.52609 14.1807 8.02869 14.7749C8.26098 15.0494 8.2917 15.1583 8.20785 15.4728C8.149 15.701 8.01097 16.2567 7.95368 16.4754C7.87035 16.7916 7.61411 16.9062 7.32869 16.7885C5.58131 16.0754 4.76828 14.1635 4.76828 12.0124C4.76828 8.46245 7.76306 4.20258 13.7016 4.20258C18.4745 4.20258 21.6156 7.65881 21.6156 11.364C21.6156 16.2681 18.8901 19.9317 14.8698 19.9317C13.5219 19.9317 12.2521 19.2025 11.8167 18.3744C11.8167 18.3744 11.0906 21.2546 10.9375 21.8098C10.6729 22.7733 10.1542 23.7369 9.67973 24.4869C10.8042 24.8191 11.9922 24.9999 13.2219 24.9999C20.125 24.9999 25.7213 19.4035 25.7213 12.5005C25.7213 5.59633 20.125 0 13.2219 0Z" fill="white"/>
</svg>
