<svg width="31" height="25" viewBox="0 0 31 25" fill="none" xmlns="http://www.w3.org/2000/svg">
<path d="M30.7218 2.96222C29.589 3.46352 28.378 3.80206 27.102 3.95831C28.4041 3.17707 29.4067 1.94009 29.8754 0.468747C28.658 1.1914 27.3103 1.71874 25.8715 1.99869C24.7192 0.768225 23.0786 0 21.2687 0C17.7856 0 14.9666 2.82551 14.9666 6.30856C14.9666 6.80335 15.0187 7.28512 15.1294 7.74735C9.88854 7.48694 5.24013 4.97393 2.13467 1.15234C1.59431 2.08332 1.28181 3.17056 1.28181 4.32289C1.28181 6.51038 2.4016 8.44397 4.0943 9.57677C3.05264 9.55073 2.07608 9.26427 1.22973 8.78902V8.86714C1.22973 11.927 3.4042 14.4726 6.2883 15.052C5.76096 15.1952 5.20106 15.2734 4.62815 15.2734C4.22451 15.2734 3.82737 15.2343 3.44326 15.1562C4.24404 17.6627 6.57475 19.4856 9.33516 19.5377C7.18022 21.2304 4.45888 22.2395 1.50317 22.2395C0.995356 22.2395 0.494057 22.2069 -0.000732422 22.1483C2.7792 23.9582 6.09299 24.9999 9.64765 24.9999C21.2557 24.9999 27.5968 15.384 27.5968 7.04423C27.5968 6.7708 27.5903 6.49736 27.5772 6.23044C28.8077 5.33851 29.8754 4.23175 30.7218 2.96222Z" fill="white"/>
</svg>
