<svg width="30" height="28" viewBox="0 0 30 28" fill="none" xmlns="http://www.w3.org/2000/svg">
<path fill-rule="evenodd" clip-rule="evenodd" d="M14.7336 -9.2814e-07C6.59703 -9.2814e-07 0 6.42659 0 14.3547C0 20.6967 4.22163 26.0765 10.0769 27.9754C10.8141 28.1067 11.0828 27.6635 11.0828 27.2828C11.0828 26.9427 11.0701 26.0394 11.0629 24.8419C6.96429 25.709 6.09952 22.9174 6.09952 22.9174C5.42923 21.2598 4.46315 20.8183 4.46315 20.8183C3.12529 19.9274 4.56446 19.9451 4.56446 19.9451C6.04343 20.0473 6.82136 21.4246 6.82136 21.4246C8.1357 23.6179 10.2705 22.9843 11.1099 22.6177C11.2438 21.6898 11.6237 21.0571 12.0453 20.6985C8.77343 20.3363 5.33335 19.1044 5.33335 13.604C5.33335 12.0372 5.90775 10.7559 6.85031 9.75224C6.69834 9.38918 6.19269 7.92991 6.99414 5.95338C6.99414 5.95338 8.23159 5.56742 11.0466 7.42499C12.2216 7.10687 13.4826 6.94738 14.7354 6.94209C15.9865 6.94738 17.2474 7.10687 18.4243 7.42499C21.2375 5.56742 22.4722 5.95338 22.4722 5.95338C23.2764 7.92991 22.7707 9.38918 22.6188 9.75224C23.5631 10.7559 24.1339 12.0372 24.1339 13.604C24.1339 19.1185 20.6884 20.3319 17.4057 20.687C17.9349 21.1303 18.4062 22.0062 18.4062 23.3456C18.4062 25.264 18.3881 26.8123 18.3881 27.2828C18.3881 27.667 18.6531 28.1138 19.4012 27.9737C25.252 26.0712 29.47 20.695 29.47 14.3547C29.47 6.42659 22.8721 -9.2814e-07 14.7336 -9.2814e-07Z" fill="#343434"/>
</svg>
