<svg width="30" height="23" viewBox="0 0 30 23" fill="none" xmlns="http://www.w3.org/2000/svg">
<path d="M3.61735 4.76012C3.65436 4.41317 3.51515 4.07014 3.24242 3.83668L0.464771 0.65753V0.182617H9.08915L15.7554 14.0732L21.6162 0.182617L29.8377 0.182672V0.65753L27.4629 2.82089C27.2581 2.96911 27.1566 3.21294 27.199 3.45418V19.3498C27.1566 19.591 27.2581 19.8348 27.4629 19.983L29.7821 22.1464V22.6213H18.1164V22.1464L20.5189 19.9302C20.7551 19.706 20.7551 19.64 20.7551 19.2971V6.44862L14.075 22.5684H13.1723L5.39496 6.44862V17.2524C5.33023 17.7066 5.48896 18.1639 5.82549 18.4924L8.95041 22.0935V22.5684H0.0898438V22.0935L3.21476 18.4924C3.54879 18.1633 3.69822 17.7029 3.61735 17.2524V4.76012V4.76012Z" fill="#343434"/>
</svg>
