<svg width="30" height="24" viewBox="0 0 30 24" fill="none" xmlns="http://www.w3.org/2000/svg">
<path d="M9.51259 23.1486C20.7382 23.1486 26.8782 14.3121 26.8782 6.64917C26.8782 6.39822 26.8782 6.14837 26.8604 5.89962C28.0548 5.07869 29.0859 4.06235 29.9053 2.898C28.7915 3.36696 27.6098 3.67444 26.3998 3.81035C27.6737 3.08586 28.6276 1.94547 29.0831 0.602934C27.8851 1.27834 26.5743 1.75442 25.2076 2.0105C24.0535 0.844558 22.4418 0.182617 20.7574 0.182617C17.406 0.182617 14.6483 2.80278 14.6483 5.9869C14.6483 6.42863 14.7014 6.86899 14.8065 7.29924C9.9017 7.06568 5.32552 4.86142 2.22791 1.24059C0.61711 3.87521 1.45057 7.28953 4.11748 8.9815C3.14632 8.95418 2.19601 8.70521 1.34739 8.25569V8.32917C1.3482 11.0791 3.4069 13.4692 6.24387 14.0137C5.34539 14.2464 4.40247 14.2805 3.48807 14.1131C4.28563 16.4695 6.58551 18.0937 9.19013 18.1402C7.02934 19.7536 4.3586 20.63 1.61035 20.6274C1.12474 20.6265 0.639595 20.5986 0.157471 20.5437C2.94831 22.2454 6.19652 23.1482 9.51259 23.144" fill="#343434"/>
</svg>
